<svg xmlns="http://www.w3.org/2000/svg" viewBox="0 0 512 512"><filter id="b"><feGaussianBlur stdDeviation="12" /></filter><path d="M0 0h512v512H0z" fill="#bce085" /><g filter="url(#b)" transform="scale(2.000000) translate(0.5 0.5)"><g transform="translate(134.358508 136.619770) rotate(43.250553) scale(49.656118 9.691741)"><ellipse fill="#15083b" fill-opacity=".501961" cx="0" cy="0" rx="1" ry="1" /></g><ellipse fill="#faf2ff" fill-opacity=".501961" cx="185" cy="136" rx="42" ry="25" /><ellipse fill="#fff" fill-opacity=".501961" cx="77" cy="135" rx="37" ry="25" /><ellipse fill="#000" fill-opacity=".501961" cx="149" cy="108" rx="127" ry="4" /><path fill="#000" fill-opacity=".501961" d="M207 1e2l13 51 14-34z" /><g transform="translate(33 133) rotate(172) scale(13 41)"><path d="M0 0h512v512H0z" fill="#000" /></g><g transform="translate(133.643304 123.270454) rotate(320.391776) scale(30.018647 8.125158)"><ellipse fill="#000" fill-opacity=".501961" cx="0" cy="0" rx="1" ry="1" /></g><g transform="translate(65.177128 162.699881) rotate(273.258898) scale(4.837617 44.777273)"><ellipse fill="#0f0923" fill-opacity=".501961" cx="0" cy="0" rx="1" ry="1" /></g></g></svg>