<svg xmlns="http://www.w3.org/2000/svg" viewBox="0 0 3889 5833"><filter id="b"><feGaussianBlur stdDeviation="12" /></filter><path d="M0 0h3889v5833H0z" fill="#845a4b" /><g filter="url(#b)" transform="scale(22.785156) translate(0.5 0.5)"><g transform="translate(65.567766 22.322846) rotate(86.320491) scale(59.134665 102.534925)"><ellipse fill="#fff4da" fill-opacity=".501961" cx="0" cy="0" rx="1" ry="1" /></g><ellipse fill="#160000" fill-opacity=".501961" cx="74" cy="255" rx="120" ry="120" /><g transform="translate(79.937672 18.010545) rotate(257.451887) scale(22.664511 49.354361)"><ellipse fill="#fff5ef" fill-opacity=".501961" cx="0" cy="0" rx="1" ry="1" /></g><ellipse fill="#e1d4c9" fill-opacity=".501961" cx="116" cy="133" rx="22" ry="18" /><g transform="translate(159.018320 180.711198) rotate(369.402247) scale(23.752085 75.196321)"><ellipse fill="#2a0a08" fill-opacity=".501961" cx="0" cy="0" rx="1" ry="1" /></g><g transform="translate(96.195181 70.500501) rotate(79.267025) scale(24.877556 134.239610)"><ellipse fill="#c37e5f" fill-opacity=".501961" cx="0" cy="0" rx="1" ry="1" /></g><ellipse fill="#832c1d" fill-opacity=".501961" cx="51" cy="140" rx="48" ry="48" /><path fill="#86574a" fill-opacity=".501961" d="M97 145l59-17-35 83z" /></g></svg>