<svg xmlns="http://www.w3.org/2000/svg" viewBox="0 0 2644 3966"><filter id="b"><feGaussianBlur stdDeviation="12" /></filter><path d="M0 0h2644v3966H0z" fill="#5e6a69" /><g filter="url(#b)" transform="scale(15.492188) translate(0.5 0.5)"><g transform="translate(151.852224 81.630885) rotate(42.641391) scale(39.179482 79.570420)"><ellipse fill="#e3ebef" fill-opacity=".501961" cx="0" cy="0" rx="1" ry="1" /></g><ellipse fill="#0b0713" fill-opacity=".501961" cx="62" cy="255" rx="63" ry="63" /><g transform="translate(61.955756 111.821315) rotate(105.580696) scale(27.622027 53.094249)"><ellipse fill="#c9c9cf" fill-opacity=".501961" cx="0" cy="0" rx="1" ry="1" /></g><ellipse fill="#0b3411" fill-opacity=".501961" cx="47" cy="16" rx="103" ry="63" /><path fill="#eae5e3" fill-opacity=".501961" d="M102 143 61 211l-29-1z" /><g transform="translate(152.162643 150.864663) rotate(66.853644) scale(20.491502 29.222224)"><ellipse fill="#bcb5bb" fill-opacity=".501961" cx="0" cy="0" rx="1" ry="1" /></g><g transform="translate(88.032227 70.999941) rotate(57.494226) scale(36.843543 29.824215)"><ellipse fill="#4c6b57" fill-opacity=".501961" cx="0" cy="0" rx="1" ry="1" /></g><path d="M0 0h2644v3966H0z" fill="#002100" /></g></svg>