<svg xmlns="http://www.w3.org/2000/svg" viewBox="0 0 6000 4000"><filter id="b"><feGaussianBlur stdDeviation="12" /></filter><path d="M0 0h6e3v4e3H0z" fill="#515044" /><g filter="url(#b)" transform="scale(23.437500) translate(0.5 0.5)"><ellipse fill="#000" fill-opacity=".501961" cx="182" cy="169" rx="71" ry="71" /><ellipse fill="#edc5a3" fill-opacity=".501961" cx="1" cy="63" rx="21" ry="93" /><g transform="translate(54.946055 19.624448) rotate(63.134551) scale(29.990373 24.667261)"><ellipse fill="#eccbad" fill-opacity=".501961" cx="0" cy="0" rx="1" ry="1" /></g><g transform="translate(40.509892 121.411998) rotate(88.330020) scale(59.216442 27.068085)"><ellipse fill="#080604" fill-opacity=".501961" cx="0" cy="0" rx="1" ry="1" /></g><ellipse fill="#9e9587" fill-opacity=".501961" cx="162" cy="16" rx="38" ry="38" /><g transform="translate(255.000000 88.074701) rotate(85.203212) scale(45.994366 20.567132)"><ellipse fill="#c3ccbe" fill-opacity=".501961" cx="0" cy="0" rx="1" ry="1" /></g><g transform="translate(100.779643 114.509117) rotate(284.145057) scale(24.098216 10.312633)"><ellipse fill="#ffd8a8" fill-opacity=".501961" cx="0" cy="0" rx="1" ry="1" /></g><ellipse fill="#000007" fill-opacity=".501961" cx="100" cy="169" rx="32" ry="32" /></g></svg>