<svg xmlns="http://www.w3.org/2000/svg" viewBox="0 0 4874 2742"><filter id="b"><feGaussianBlur stdDeviation="12" /></filter><path d="M0 0h4874v2742H0z" fill="#746b65" /><g filter="url(#b)" transform="scale(19.039062) translate(0.5 0.5)"><g transform="translate(218.613182 66.560703) rotate(109.818738) scale(39.848922 30.728946)"><ellipse fill="#ccddeb" fill-opacity=".501961" cx="0" cy="0" rx="1" ry="1" /></g><g transform="translate(28.720611 98.594061) rotate(281.680578) scale(62.246436 72.301545)"><ellipse fill="#3f2a15" fill-opacity=".501961" cx="0" cy="0" rx="1" ry="1" /></g><g transform="translate(89.637061 39.726436) rotate(87.786539) scale(7.728063 42.024843)"><ellipse fill="#e9f5ff" fill-opacity=".501961" cx="0" cy="0" rx="1" ry="1" /></g><g transform="translate(26 21) rotate(29) scale(59 19)"><path d="M0 0h4874v2742H0z" fill="#fff" /></g><g transform="translate(69.516357 0.000000) rotate(90.808974) scale(18.270891 52.085004)"><ellipse fill="#170000" fill-opacity=".501961" cx="0" cy="0" rx="1" ry="1" /></g><g transform="translate(145.880832 106.599582) rotate(188.682067) scale(14.900380 36.083025)"><ellipse fill="#c3c0bf" fill-opacity=".501961" cx="0" cy="0" rx="1" ry="1" /></g><path fill="#000013" fill-opacity=".501961" d="M230 90l-24 12 13 57z" /><ellipse fill="#c0cdd6" fill-opacity=".501961" cx="255" cy="127" rx="28" ry="28" /></g></svg>