<svg xmlns="http://www.w3.org/2000/svg" viewBox="0 0 1687 2531"><filter id="b"><feGaussianBlur stdDeviation="12" /></filter><path d="M0 0h1687v2531H0z" fill="#8f9295" /><g filter="url(#b)" transform="scale(9.886719) translate(0.5 0.5)"><g transform="translate(110.649869 104.494771) rotate(-91.873177) scale(32.719303 74.157879)"><ellipse fill="#1c222c" fill-opacity=".501961" cx="0" cy="0" rx="1" ry="1" /></g><g transform="translate(69.259225 225.603032) rotate(85.017930) scale(49.545843 106.768603)"><ellipse fill="#d7d1cd" fill-opacity=".501961" cx="0" cy="0" rx="1" ry="1" /></g><g transform="translate(49.770762 158.948718) rotate(245.284983) scale(21.356802 28.374282)"><ellipse fill="#293e40" fill-opacity=".501961" cx="0" cy="0" rx="1" ry="1" /></g><ellipse fill="#e1ecf2" fill-opacity=".501961" cx="32" cy="0" rx="52" ry="28" /><ellipse fill="#4d4c5c" fill-opacity=".501961" cx="30" cy="67" rx="26" ry="38" /><g transform="translate(142.689382 40.030574) rotate(46.671077) scale(29.414182 45.053921)"><ellipse fill="#a8b8c6" fill-opacity=".501961" cx="0" cy="0" rx="1" ry="1" /></g><path fill="#dcd5d1" fill-opacity=".501961" d="M24 110l5 86-39-59z" /><path fill="#252930" fill-opacity=".501961" d="M94.714856 148.162555 185 105.494987 81.66947 121.195302 80.71148 140.247039z" /></g></svg>