<svg xmlns="http://www.w3.org/2000/svg" viewBox="0 0 5009 2818"><filter id="b"><feGaussianBlur stdDeviation="12" /></filter><path d="M0 0h5009v2818H0z" fill="#3c4756" /><g filter="url(#b)" transform="scale(19.566406) translate(0.5 0.5)"><g transform="translate(18.705155 8.930023) rotate(197.620173) scale(61.605358 26.888321)"><ellipse fill="#c4d2ff" fill-opacity=".501961" cx="0" cy="0" rx="1" ry="1" /></g><g transform="translate(172.813574 31.027076) rotate(345.476605) scale(61.986818 24.763633)"><ellipse fill="#668ce1" fill-opacity=".501961" cx="0" cy="0" rx="1" ry="1" /></g><g transform="translate(171.350011 80.199072) rotate(88.778855) scale(22.735639 243.488704)"><ellipse fill="#000707" fill-opacity=".501961" cx="0" cy="0" rx="1" ry="1" /></g><g transform="translate(131.805077 136.734715) rotate(300.775390) scale(21.745741 28.087456)"><ellipse fill="#e7cb5b" fill-opacity=".501961" cx="0" cy="0" rx="1" ry="1" /></g><path d="M0 0h5009v2818H0z" fill="#000002" /><g transform="translate(50.632476 0.000000) rotate(252.243289) scale(55.790133 22.668682)"><ellipse fill="#8e9bdb" fill-opacity=".501961" cx="0" cy="0" rx="1" ry="1" /></g><g transform="translate(86.312859 121.451250) rotate(325.968059) scale(56.001289 27.040356)"><ellipse fill="#605e35" fill-opacity=".501961" cx="0" cy="0" rx="1" ry="1" /></g><path d="M0 0h5009v2818H0z" fill="#a0a7cd" /></g></svg>