<svg xmlns="http://www.w3.org/2000/svg" viewBox="0 0 5984 3366"><filter id="b"><feGaussianBlur stdDeviation="12" /></filter><path d="M0 0h5984v3366H0z" fill="#5b6c62" /><g filter="url(#b)" transform="scale(23.375000) translate(0.5 0.5)"><g transform="translate(102.381036 63.509461) rotate(5.656319) scale(76.064259 22.610348)"><ellipse fill="#c8deca" fill-opacity=".501961" cx="0" cy="0" rx="1" ry="1" /></g><g transform="translate(54.586758 6.898952) rotate(266.051670) scale(30.234128 136.490512)"><ellipse fill="#003206" fill-opacity=".501961" cx="0" cy="0" rx="1" ry="1" /></g><g transform="translate(130.350464 106.148343) rotate(137.354491) scale(26.505191 33.022299)"><ellipse fill="#c0b3c5" fill-opacity=".501961" cx="0" cy="0" rx="1" ry="1" /></g><g transform="translate(33.764222 126.772783) rotate(353.552591) scale(53.968000 30.921142)"><ellipse fill="#260e1b" fill-opacity=".501961" cx="0" cy="0" rx="1" ry="1" /></g><g transform="translate(218 85) rotate(270) scale(36 11)"><path d="M0 0h5984v3366H0z" fill="#fff" /></g><ellipse fill="#401e28" fill-opacity=".501961" cx="190" cy="125" rx="28" ry="28" /><ellipse fill="#000a00" fill-opacity=".501961" cx="178" cy="52" rx="25" ry="13" /><g transform="translate(224.866602 56.476909) rotate(307.458137) scale(18.083348 32.240197)"><ellipse fill="#80a3bd" fill-opacity=".501961" cx="0" cy="0" rx="1" ry="1" /></g></g></svg>