<svg xmlns="http://www.w3.org/2000/svg" viewBox="0 0 2633 3949"><filter id="b"><feGaussianBlur stdDeviation="12" /></filter><path d="M0 0h2633v3949H0z" fill="#879293" /><g filter="url(#b)" transform="scale(15.425781) translate(0.5 0.5)"><ellipse fill="#151c1b" fill-opacity=".501961" cx="74" cy="231" rx="170" ry="38" /><ellipse fill="#c2d5da" fill-opacity=".501961" cx="75" cy="0" rx="117" ry="117" /><ellipse fill="#cecdbe" fill-opacity=".501961" cx="108" cy="167" rx="100" ry="25" /><g transform="translate(78.565306 245.256606) rotate(210.111092) scale(42.388509 20.411204)"><ellipse fill="#000" fill-opacity=".501961" cx="0" cy="0" rx="1" ry="1" /></g><g transform="translate(10.969708 235.842774) rotate(21.985153) scale(41.143504 12.829267)"><ellipse fill="#d5dad2" fill-opacity=".501961" cx="0" cy="0" rx="1" ry="1" /></g><g transform="translate(138.271203 122.041880) rotate(355.774421) scale(115.368943 11.225148)"><ellipse fill="#24363b" fill-opacity=".501961" cx="0" cy="0" rx="1" ry="1" /></g><g transform="translate(170 167) rotate(129) scale(27 75)"><path d="M0 0h2633v3949H0z" fill="#46606c" /></g><ellipse fill="#7b8b8b" fill-opacity=".501961" cx="62" cy="108" rx="73" ry="16" /></g></svg>