<svg xmlns="http://www.w3.org/2000/svg" viewBox="0 0 5981 3364"><filter id="b"><feGaussianBlur stdDeviation="12" /></filter><path d="M0 0h5981v3364H0z" fill="#5a7678" /><g filter="url(#b)" transform="scale(23.363281) translate(0.5 0.5)"><g transform="translate(121.674119 32.715453) rotate(175.212017) scale(78.410329 34.398038)"><ellipse fill="#b3f3ff" fill-opacity=".501961" cx="0" cy="0" rx="1" ry="1" /></g><g transform="translate(233.946022 65.135668) rotate(95.383264) scale(168.944560 33.237443)"><ellipse fill="#000" fill-opacity=".501961" cx="0" cy="0" rx="1" ry="1" /></g><ellipse fill="#02160e" fill-opacity=".501961" cx="0" cy="98" rx="57" ry="57" /><ellipse fill="#c7b9ab" fill-opacity=".501961" cx="119" cy="138" rx="56" ry="56" /><ellipse fill="#4ab3f2" fill-opacity=".501961" cx="71" cy="3" rx="128" ry="31" /><g transform="translate(121.210004 45.266671) rotate(311.809757) scale(30.838458 24.495568)"><ellipse fill="#d2dff0" fill-opacity=".501961" cx="0" cy="0" rx="1" ry="1" /></g><path fill="#e3d4c4" fill-opacity=".501961" d="M214.210105 96.981413 217.453566 117.115395 211.414083 121.342258 113.173372 96.358546z" /><g transform="translate(200.434872 70.858382) rotate(51.825029) scale(28.689949 31.264215)"><ellipse fill="#43490f" fill-opacity=".501961" cx="0" cy="0" rx="1" ry="1" /></g></g></svg>