<svg xmlns="http://www.w3.org/2000/svg" viewBox="0 0 5931 3336"><filter id="b"><feGaussianBlur stdDeviation="12" /></filter><path d="M0 0h5931v3336H0z" fill="#616e74" /><g filter="url(#b)" transform="scale(23.167969) translate(0.5 0.5)"><ellipse fill="#fff" fill-opacity=".501961" cx="68" cy="21" rx="97" ry="39" /><g transform="translate(89.390415 112.940441) rotate(177.279482) scale(107.817375 48.360056)"><ellipse fill="#0c1c1e" fill-opacity=".501961" cx="0" cy="0" rx="1" ry="1" /></g><g transform="translate(233.792550 38.351610) rotate(285.397861) scale(54.043957 68.575841)"><ellipse fill="#090a0d" fill-opacity=".501961" cx="0" cy="0" rx="1" ry="1" /></g><g transform="translate(47.405413 20.529418) rotate(99.877955) scale(33.134562 118.572238)"><ellipse fill="#e3fdff" fill-opacity=".501961" cx="0" cy="0" rx="1" ry="1" /></g><ellipse fill="#d2e5ed" fill-opacity=".501961" cx="209" cy="116" rx="13" ry="38" /><g transform="translate(244.435659 141.980539) rotate(242.607335) scale(36.894173 18.064346)"><ellipse fill="#000006" fill-opacity=".501961" cx="0" cy="0" rx="1" ry="1" /></g><g transform="translate(95.370105 64.533925) rotate(87.056720) scale(16.334845 21.833042)"><ellipse fill="#3b515e" fill-opacity=".501961" cx="0" cy="0" rx="1" ry="1" /></g><g transform="translate(26.137253 133.162815) rotate(257.146209) scale(19.715692 41.322816)"><ellipse fill="#050a0d" fill-opacity=".501961" cx="0" cy="0" rx="1" ry="1" /></g></g></svg>