<svg xmlns="http://www.w3.org/2000/svg" viewBox="0 0 4000 6000"><filter id="b"><feGaussianBlur stdDeviation="12" /></filter><path d="M0 0h4e3v6e3H0z" fill="#596d63" /><g filter="url(#b)" transform="scale(23.437500) translate(0.5 0.5)"><ellipse fill="#d2e5ff" fill-opacity=".501961" cx="81" cy="158" rx="36" ry="20" /><g transform="translate(106.655911 225.934266) rotate(-12.785736) scale(147.141666 18.605867)"><ellipse fill="#010000" fill-opacity=".501961" cx="0" cy="0" rx="1" ry="1" /></g><g transform="translate(158.017840 163.911192) rotate(299.223121) scale(27.886663 25.327287)"><ellipse fill="#000" fill-opacity=".501961" cx="0" cy="0" rx="1" ry="1" /></g><ellipse fill="#a9d0b4" fill-opacity=".501961" cx="36" cy="76" rx="29" ry="29" /><g transform="translate(151.878205 20.447917) rotate(41.358966) scale(83.710048 21.567693)"><ellipse fill="#7fbbee" fill-opacity=".501961" cx="0" cy="0" rx="1" ry="1" /></g><ellipse fill="#e5e4e6" fill-opacity=".501961" cx="29" cy="152" rx="6" ry="37" /><g transform="translate(22 66) rotate(290) scale(16 116)"><path d="M0 0h4e3v6e3H0z" fill="#e7e8ff" /></g><path fill="#fcfffc" fill-opacity=".501961" d="M152.107248 138.803927 138.635365 133.90089 104.934823 110.579544 142.963921 116.952911z" /></g></svg>