<svg xmlns="http://www.w3.org/2000/svg" viewBox="0 0 3230 4845"><filter id="b"><feGaussianBlur stdDeviation="12" /></filter><path d="M0 0h3230v4845H0z" fill="#3e413e" /><g filter="url(#b)" transform="scale(18.925781) translate(0.5 0.5)"><g transform="translate(120.990106 233.974765) rotate(401.247297) scale(79.692390 61.074397)"><ellipse fill="#8a8678" fill-opacity=".501961" cx="0" cy="0" rx="1" ry="1" /></g><g transform="translate(154.080264 83.190172) rotate(-0.303119) scale(20.012456 107.609757)"><ellipse fill="#000" fill-opacity=".501961" cx="0" cy="0" rx="1" ry="1" /></g><ellipse fill="#000" fill-opacity=".501961" cx="9" cy="98" rx="41" ry="41" /><ellipse fill="#8e8370" fill-opacity=".501961" cx="96" cy="71" rx="25" ry="26" /><ellipse fill="#acb39f" fill-opacity=".501961" cx="63" cy="166" rx="9" ry="31" /><g transform="translate(128.506911 146.708017) rotate(87.640723) scale(63.315956 5.348321)"><ellipse fill="#bda497" fill-opacity=".501961" cx="0" cy="0" rx="1" ry="1" /></g><path fill="#b7a793" fill-opacity=".501961" d="M120.263678 72.664149 56.086964 81.030241 51.238716 105.202657 71.559137 101.848051z" /><g transform="translate(35.766326 225.892060) rotate(0.009918) scale(50.160218 11.835237)"><ellipse fill="#000a0f" fill-opacity=".501961" cx="0" cy="0" rx="1" ry="1" /></g></g></svg>