<svg xmlns="http://www.w3.org/2000/svg" viewBox="0 0 6000 3375"><filter id="b"><feGaussianBlur stdDeviation="12" /></filter><path d="M0 0h6e3v3375H0z" fill="#809da2" /><g filter="url(#b)" transform="scale(23.437500) translate(0.5 0.5)"><g transform="translate(23.674832 117.929942) rotate(230.446733) scale(179.202059 60.156627)"><ellipse fill="#09160f" fill-opacity=".501961" cx="0" cy="0" rx="1" ry="1" /></g><ellipse fill="#fff" fill-opacity=".501961" cx="173" cy="22" rx="147" ry="27" /><g transform="translate(53.793520 83.805995) rotate(252.350934) scale(15.618969 26.419998)"><ellipse fill="#c3d2c9" fill-opacity=".501961" cx="0" cy="0" rx="1" ry="1" /></g><ellipse fill="#0c1110" fill-opacity=".501961" cx="16" cy="20" rx="11" ry="143" /><g transform="translate(190.419604 136.989512) rotate(272.653432) scale(16.905157 101.168839)"><ellipse fill="#23525a" fill-opacity=".501961" cx="0" cy="0" rx="1" ry="1" /></g><g transform="translate(155.743057 56.524098) rotate(93.283166) scale(8.196743 69.978153)"><ellipse fill="#005e7c" fill-opacity=".501961" cx="0" cy="0" rx="1" ry="1" /></g><ellipse fill="#e5f9ff" fill-opacity=".501961" cx="163" cy="11" rx="138" ry="34" /><ellipse fill="#bed7da" fill-opacity=".501961" cx="168" cy="78" rx="118" ry="15" /></g></svg>