<svg xmlns="http://www.w3.org/2000/svg" viewBox="0 0 5977 3362"><filter id="b"><feGaussianBlur stdDeviation="12" /></filter><path d="M0 0h5977v3362H0z" fill="#3e3b3a" /><g filter="url(#b)" transform="scale(23.347656) translate(0.5 0.5)"><g transform="translate(234.551890 78.958029) rotate(361.704790) scale(84.723623 25.767557)"><ellipse fill="#eaede6" fill-opacity=".501961" cx="0" cy="0" rx="1" ry="1" /></g><g transform="translate(86.671461 67.767219) rotate(272.815989) scale(7.076137 64.122507)"><ellipse fill="#f0f8f1" fill-opacity=".501961" cx="0" cy="0" rx="1" ry="1" /></g><g transform="translate(83.250799 135.100538) rotate(185.777509) scale(183.407091 45.275967)"><ellipse fill="#000" fill-opacity=".501961" cx="0" cy="0" rx="1" ry="1" /></g><g transform="translate(36.319381 11.391017) rotate(340.560410) scale(160.552509 23.302760)"><ellipse fill="#000" fill-opacity=".501961" cx="0" cy="0" rx="1" ry="1" /></g><g transform="translate(235.856881 68.072530) rotate(354.011846) scale(37.221570 9.502308)"><ellipse fill="#ece9e5" fill-opacity=".501961" cx="0" cy="0" rx="1" ry="1" /></g><g transform="translate(242.484772 12.051084) rotate(219.447757) scale(23.382570 35.762697)"><ellipse fill="#8c6e66" fill-opacity=".501961" cx="0" cy="0" rx="1" ry="1" /></g><path fill="#0e0100" fill-opacity=".501961" d="M212 60 156 44l115-1z" /><g transform="translate(178 58) rotate(257) scale(16 22)"><path d="M0 0h5977v3362H0z" fill="#00110e" /></g></g></svg>