<svg xmlns="http://www.w3.org/2000/svg" viewBox="0 0 5409 3043"><filter id="b"><feGaussianBlur stdDeviation="12" /></filter><path d="M0 0h5409v3043H0z" fill="#323c4d" /><g filter="url(#b)" transform="scale(21.128906) translate(0.5 0.5)"><ellipse fill="#b0a871" fill-opacity=".501961" cx="153" cy="135" rx="60" ry="38" /><g transform="translate(52.151486 12.948038) rotate(6.994039) scale(110.586864 27.329005)"><ellipse fill="#2d62cc" fill-opacity=".501961" cx="0" cy="0" rx="1" ry="1" /></g><g transform="translate(28.168420 104.034242) rotate(69.530355) scale(50.536886 120.477423)"><ellipse fill="#100c0c" fill-opacity=".501961" cx="0" cy="0" rx="1" ry="1" /></g><g transform="translate(226.306570 62.306932) rotate(-88.459493) scale(23.618786 91.736413)"><ellipse fill="#01080b" fill-opacity=".501961" cx="0" cy="0" rx="1" ry="1" /></g><g transform="translate(164.619816 132.167546) rotate(176.059136) scale(15.285604 26.807604)"><ellipse fill="#d2c89f" fill-opacity=".501961" cx="0" cy="0" rx="1" ry="1" /></g><path d="M0 0h5409v3043H0z" fill="#b9ac94" /><path d="M0 0h5409v3043H0z" fill="#003286" /><g transform="translate(97 134) rotate(137) scale(130 7)"><path d="M0 0h5409v3043H0z" fill="#c9dbdf" /></g></g></svg>