<svg xmlns="http://www.w3.org/2000/svg" viewBox="0 0 6000 3375"><filter id="b"><feGaussianBlur stdDeviation="12" /></filter><path d="M0 0h6e3v3375H0z" fill="#4a6473" /><g filter="url(#b)" transform="scale(23.437500) translate(0.5 0.5)"><g transform="translate(49.757677 21.189306) rotate(-4.468713) scale(84.639640 36.147648)"><ellipse fill="#add9ff" fill-opacity=".501961" cx="0" cy="0" rx="1" ry="1" /></g><g transform="translate(255.000000 69.367680) rotate(37.550956) scale(91.667161 72.280804)"><ellipse fill="#002146" fill-opacity=".501961" cx="0" cy="0" rx="1" ry="1" /></g><ellipse fill="#f8da9f" fill-opacity=".501961" cx="124" cy="120" rx="25" ry="25" /><g transform="translate(24.453533 119.972976) rotate(60.592039) scale(18.970753 60.440840)"><ellipse fill="#1a120f" fill-opacity=".501961" cx="0" cy="0" rx="1" ry="1" /></g><g transform="translate(152.246949 24.734618) rotate(93.249191) scale(25.160323 88.969344)"><ellipse fill="#3689c6" fill-opacity=".501961" cx="0" cy="0" rx="1" ry="1" /></g><ellipse fill="#11151e" fill-opacity=".501961" cx="151" cy="68" rx="157" ry="17" /><g transform="translate(17 39) rotate(269) scale(38 57)"><path d="M0 0h6e3v3375H0z" fill="#e8dae3" /></g><path fill="#cf9f77" fill-opacity=".501961" d="M18 154l91-75-35 59z" /></g></svg>