<svg xmlns="http://www.w3.org/2000/svg" viewBox="0 0 4000 6000"><filter id="b"><feGaussianBlur stdDeviation="12" /></filter><path d="M0 0h4e3v6e3H0z" fill="#596d63" /><g filter="url(#b)" transform="scale(23.437500) translate(0.5 0.5)"><g transform="translate(80.075479 151.655306) rotate(183.298662) scale(32.493566 13.979620)"><ellipse fill="#f8ffff" fill-opacity=".501961" cx="0" cy="0" rx="1" ry="1" /></g><ellipse fill="#1a0d11" fill-opacity=".501961" cx="43" cy="223" rx="168" ry="26" /><g transform="translate(159.260088 163.200027) rotate(308.858475) scale(30.291508 26.326733)"><ellipse fill="#000300" fill-opacity=".501961" cx="0" cy="0" rx="1" ry="1" /></g><g transform="translate(29.913413 67.349114) rotate(17.429590) scale(58.487748 10.973730)"><ellipse fill="#e9fcff" fill-opacity=".501961" cx="0" cy="0" rx="1" ry="1" /></g><ellipse fill="#73baf8" fill-opacity=".501961" cx="163" cy="12" rx="36" ry="36" /><ellipse fill="#9e9ba7" fill-opacity=".501961" cx="37" cy="190" rx="19" ry="48" /><g transform="translate(135 122) rotate(127) scale(14 29)"><path d="M0 0h4e3v6e3H0z" fill="#fff" /></g><g transform="translate(30.485967 255.000000) rotate(187.911592) scale(49.097661 17.542561)"><ellipse fill="#000" fill-opacity=".501961" cx="0" cy="0" rx="1" ry="1" /></g></g></svg>