<svg xmlns="http://www.w3.org/2000/svg" viewBox="0 0 6000 3375"><filter id="b"><feGaussianBlur stdDeviation="12" /></filter><path d="M0 0h6e3v3375H0z" fill="#4a6473" /><g filter="url(#b)" transform="scale(23.437500) translate(0.5 0.5)"><g transform="translate(66 26) rotate(265) scale(56 143)"><path d="M0 0h6e3v3375H0z" fill="#add8ff" /></g><ellipse fill="#001f42" fill-opacity=".501961" cx="255" cy="63" rx="80" ry="80" /><ellipse fill="#fcdda2" fill-opacity=".501961" cx="125" cy="134" rx="21" ry="45" /><ellipse fill="#267dbd" fill-opacity=".501961" cx="162" cy="21" rx="115" ry="27" /><g transform="translate(29.358993 119.499526) rotate(236.591949) scale(16.367803 59.187262)"><ellipse fill="#190e0a" fill-opacity=".501961" cx="0" cy="0" rx="1" ry="1" /></g><g transform="translate(151.613519 66.913740) rotate(88.572021) scale(16.354520 149.253261)"><ellipse fill="#10131b" fill-opacity=".501961" cx="0" cy="0" rx="1" ry="1" /></g><ellipse fill="#e0d5de" fill-opacity=".501961" cx="14" cy="38" rx="41" ry="21" /><path fill="#cb9d76" fill-opacity=".501961" d="M61 159l52-86-97 86z" /></g></svg>